# xmcd CD database file
#
# Track frame offsets:
#	150
#	14279
#	32970
#	54319
#	71512
#	86175
#	106973
#	119010
#	136175
#	144076
#	153326
#	173737
#
# Disc length: 2598 seconds
#
# Revision: 9
# Processed by: cddbd v1.5PL3 Copyright (c) Steve Scherf et al.
# Submitted via: CDex 1.50beta10
#
DISCID=9c0a240c
DTITLE=ゴスペラーズ - アカペラ
DYEAR=2002
DGENRE=Acapella
TTITLE0=いろは
TTITLE1=RIDIN' HIGH
TTITLE2=潮騒
TTITLE3=北極星
TTITLE4=Moon Glows (On You)
TTITLE5=I Miss You
TTITLE6=金色の翼
TTITLE7=Fwfl
TTITLE8=Tiger Rag
TTITLE9=シエスタ
TTITLE10=めぐる想い
TTITLE11=星屑の街
EXTD=YEAR: 2002
EXTT0=
EXTT1=
EXTT2=
EXTT3=
EXTT4=
EXTT5=
EXTT6=
EXTT7=
EXTT8=
EXTT9=
EXTT10=
EXTT11=
PLAYORDER=
